<svg width="173" height="40" viewBox="0 0 173 40" fill="none" xmlns="http://www.w3.org/2000/svg">
<path d="M76.8214 36.7427C76.8214 36.8293 76.8214 36.8293 76.8214 36.8293C76.8214 36.8293 76.7342 36.9158 76.647 36.9158C76.5598 36.9158 76.4726 37.0024 76.3854 37.0024C76.2982 37.0024 76.1238 37.0024 75.9494 37.0024C75.775 37.0024 75.6878 37.0024 75.6006 37.0024C75.5134 37.0024 75.4262 37.0024 75.339 36.9158C75.2518 36.9158 75.2518 36.8293 75.1646 36.8293V36.7427V29.8163L72.7231 36.7427C72.7231 36.8293 72.7231 36.8293 72.6359 36.9158C72.5487 36.9158 72.5487 37.0024 72.4615 37.0024C72.3743 37.0024 72.2871 37.0024 72.1999 37.089C72.1127 37.089 71.9383 37.089 71.8511 37.089C71.6767 37.089 71.5895 37.089 71.5023 37.089C71.4151 37.089 71.3279 37.089 71.2407 37.0024C71.1535 37.0024 71.1535 36.9158 71.0663 36.9158L70.9791 36.8293L68.6248 29.9029V36.8293C68.6248 36.9158 68.6248 36.9158 68.6248 36.9158C68.6248 36.9158 68.5376 37.0024 68.4504 37.0024C68.3632 37.0024 68.276 37.089 68.1888 37.089C68.1016 37.089 67.9272 37.089 67.7528 37.089C67.5784 37.089 67.4912 37.089 67.3168 37.089C67.2296 37.089 67.1425 37.089 67.0553 37.0024C66.9681 37.0024 66.9681 36.9158 66.9681 36.9158L66.8809 36.8293V29.2968C66.8809 29.0371 66.9681 28.8639 67.0553 28.7773C67.1425 28.6907 67.3169 28.6042 67.4912 28.6042H68.6248C68.7992 28.6042 68.9736 28.6042 69.148 28.6907C69.3224 28.6907 69.4096 28.7773 69.4968 28.8639C69.584 28.9505 69.6712 29.0371 69.7584 29.1236C69.8456 29.2102 69.9328 29.3834 69.9328 29.5565L71.7639 34.5782L73.6823 29.5565C73.7695 29.3834 73.7695 29.2102 73.8567 29.1236C73.9438 29.0371 74.031 28.8639 74.1182 28.7773C74.2054 28.6907 74.2926 28.6042 74.467 28.6042C74.5542 28.6042 74.7286 28.5176 74.903 28.5176H76.0366C76.1238 28.5176 76.211 28.5176 76.2982 28.6042C76.3854 28.6042 76.4726 28.6907 76.5598 28.7773C76.647 28.8639 76.647 28.8639 76.647 29.0371C76.647 29.1236 76.7342 29.2102 76.7342 29.2968V36.7427H76.8214Z" fill="#00A7B8"/>
<path d="M84.8431 34.145C84.8431 34.5779 84.7559 34.9242 84.6687 35.2705C84.5815 35.6168 84.3199 35.8766 84.0583 36.1363C83.7967 36.396 83.4479 36.5692 83.0119 36.7424C82.5759 36.9155 81.9656 37.0021 81.268 37.0021H79.2624C79.1752 37.0021 79.088 37.0021 79.088 37.0021C79.0008 37.0021 79.0008 36.9155 78.9137 36.9155C78.9137 36.9155 78.8265 36.8289 78.8265 36.7424C78.8265 36.6558 78.7393 36.5692 78.7393 36.4826V28.777C78.7393 28.6904 78.7393 28.6904 78.8265 28.6904C78.8265 28.6904 78.9136 28.6038 79.0008 28.6038C79.088 28.6038 79.1752 28.6038 79.2624 28.5172C79.3496 28.5172 79.524 28.5172 79.6984 28.5172C79.8728 28.5172 80.0472 28.5172 80.1344 28.5172C80.2216 28.5172 80.3088 28.5172 80.396 28.6038C80.4832 28.6038 80.4832 28.6904 80.5704 28.6904V28.777V31.7207H81.6168C82.2272 31.7207 82.7503 31.8073 83.0991 31.8939C83.4479 31.9804 83.7967 32.1536 84.0583 32.4134C84.3199 32.6731 84.4943 32.9328 84.6687 33.1926C84.7559 33.3657 84.8431 33.7121 84.8431 34.145ZM83.0119 34.3181C83.0119 34.145 83.0119 33.8852 82.9247 33.7986C82.8375 33.6255 82.7503 33.5389 82.6631 33.3657C82.4888 33.2792 82.4016 33.1926 82.14 33.106C81.9656 32.9328 81.704 32.9328 81.268 32.9328H80.396V35.6168H81.3552C81.7912 35.6168 82.0528 35.6168 82.3144 35.5302C82.4888 35.4437 82.6631 35.3571 82.7503 35.1839C82.8375 35.0973 82.9247 34.9242 83.0119 34.751C83.0119 34.5779 83.0119 34.4913 83.0119 34.3181ZM87.6334 36.7424C87.6334 36.8289 87.6334 36.8289 87.6334 36.8289C87.6334 36.8289 87.5462 36.9155 87.459 36.9155C87.3718 36.9155 87.2846 36.9155 87.1974 37.0021C87.1102 37.0021 86.9358 37.0021 86.7614 37.0021C86.587 37.0021 86.4998 37.0021 86.3254 37.0021C86.2382 37.0021 86.151 37.0021 86.0638 36.9155C85.9767 36.9155 85.9767 36.8289 85.8895 36.8289C85.8895 36.7424 85.8023 36.7424 85.8023 36.7424V28.6904C85.8023 28.6038 85.8023 28.6038 85.8895 28.6038C85.8895 28.6038 85.9767 28.5172 86.0638 28.5172C86.151 28.5172 86.2382 28.5172 86.3254 28.4307C86.4126 28.4307 86.587 28.4307 86.7614 28.4307C86.9358 28.4307 87.023 28.4307 87.1974 28.4307C87.2846 28.4307 87.3718 28.4307 87.459 28.5172C87.5462 28.5172 87.5462 28.6038 87.6334 28.6038V28.6904V36.7424Z" fill="#00A7B8"/>
<path d="M100.364 38.9069V38.9934L100.277 39.08C100.19 39.08 100.103 39.08 100.016 39.08C99.9284 39.08 99.754 39.08 99.6668 39.08C99.4924 39.08 99.4052 39.08 99.318 39.08C99.2308 39.08 99.1436 39.08 99.0564 39.08C98.9693 39.08 98.9693 38.9934 98.9693 38.9934V38.9069V36.9155H93.3014V38.9069V38.9934L93.2142 39.08C93.127 39.08 93.0398 39.08 92.9526 39.08C92.8654 39.08 92.7782 39.08 92.6038 39.08C92.4294 39.08 92.3422 39.08 92.255 39.08C92.1678 39.08 92.0806 39.08 91.9934 39.08C91.9062 39.08 91.9062 38.9934 91.9062 38.9934V38.9069V35.8766C91.9062 35.79 91.9062 35.6168 91.9934 35.6168C92.0806 35.5302 92.1678 35.5302 92.255 35.5302H92.6038C92.691 35.3571 92.7782 35.1839 92.8654 35.0973C92.9526 34.9242 93.0398 34.751 93.127 34.5779C93.2142 34.3181 93.3014 34.145 93.3886 33.7986C93.4758 33.5389 93.563 33.106 93.6502 32.6731C93.7374 32.2402 93.8246 31.7207 93.9118 31.1146C93.999 30.5086 94.0862 29.8159 94.1734 29.0367C94.1734 28.8636 94.2606 28.6904 94.3478 28.6038C94.435 28.5172 94.5222 28.4307 94.6966 28.4307H99.0564C99.2308 28.4307 99.318 28.5172 99.4052 28.6038C99.4924 28.6904 99.5796 28.8636 99.5796 29.0367V35.5302H100.277C100.364 35.5302 100.452 35.5302 100.539 35.6168C100.626 35.7034 100.626 35.79 100.626 35.8766V38.9069H100.364ZM97.5741 29.9025H95.5685C95.4813 30.5952 95.3942 31.1146 95.307 31.6341C95.2198 32.1536 95.1326 32.5865 95.0454 32.9328C94.9582 33.2792 94.871 33.6255 94.7838 33.8852C94.6966 34.145 94.6094 34.4047 94.5222 34.5779C94.435 34.751 94.3478 34.9242 94.2606 35.0973C94.1734 35.2705 94.0862 35.3571 93.999 35.5302H97.4869V29.9025H97.5741Z" fill="#00A7B8"/>
<path d="M108.561 36.3095C108.648 36.4826 108.648 36.5692 108.648 36.6558C108.648 36.7424 108.648 36.8289 108.561 36.8289C108.474 36.8289 108.387 36.9155 108.299 36.9155C108.212 36.9155 108.038 36.9155 107.776 36.9155C107.515 36.9155 107.34 36.9155 107.253 36.9155C107.166 36.9155 107.079 36.9155 106.991 36.9155C106.904 36.9155 106.904 36.8289 106.817 36.8289C106.817 36.7424 106.73 36.7424 106.73 36.6558L106.119 34.9242H102.893L102.37 36.5692C102.37 36.6558 102.37 36.6558 102.283 36.7424C102.283 36.8289 102.196 36.8289 102.108 36.8289C102.021 36.8289 101.934 36.8289 101.847 36.9155C101.76 36.9155 101.585 36.9155 101.411 36.9155C101.236 36.9155 101.062 36.9155 100.975 36.9155C100.888 36.9155 100.8 36.8289 100.713 36.8289C100.713 36.7424 100.626 36.7424 100.626 36.6558C100.626 36.5692 100.713 36.396 100.713 36.3095L103.329 28.777C103.329 28.6904 103.416 28.6038 103.416 28.6038C103.416 28.5172 103.503 28.5172 103.591 28.5172C103.678 28.5172 103.765 28.5172 103.939 28.4307C104.114 28.4307 104.288 28.4307 104.463 28.4307C104.724 28.4307 104.899 28.4307 105.073 28.4307C105.247 28.4307 105.335 28.4307 105.422 28.5172C105.509 28.5172 105.596 28.6038 105.596 28.6038C105.596 28.6038 105.683 28.6904 105.683 28.777L108.561 36.3095ZM104.724 30.0757L103.503 33.6255H105.945L104.724 30.0757Z" fill="#00A7B8"/>
<path d="M114.84 36.3095C114.84 36.4826 114.84 36.5692 114.84 36.6558C114.84 36.7424 114.84 36.8289 114.752 36.8289C114.752 36.9155 114.665 36.9155 114.665 36.9155H114.578H110.305C110.131 36.9155 110.044 36.8289 109.957 36.7424C109.869 36.6558 109.782 36.4826 109.782 36.3095V28.9501C109.782 28.777 109.869 28.6038 109.957 28.5172C110.044 28.4307 110.218 28.4307 110.305 28.4307H114.578H114.665L114.752 28.5172C114.752 28.6038 114.84 28.6038 114.84 28.6904C114.84 28.777 114.84 28.8636 114.84 29.0367C114.84 29.1233 114.84 29.2965 114.84 29.383C114.84 29.4696 114.84 29.5562 114.752 29.5562C114.752 29.6428 114.665 29.6428 114.665 29.6428H114.578H111.526V31.7207H114.142H114.229L114.316 31.8073C114.316 31.8939 114.316 31.8939 114.404 31.9804C114.404 32.067 114.404 32.1536 114.404 32.3268C114.404 32.4133 114.404 32.5865 114.404 32.6731C114.404 32.7597 114.404 32.8463 114.316 32.8463C114.316 32.9328 114.229 32.9328 114.229 32.9328H114.142H111.526V35.3571H114.578C114.578 35.3571 114.665 35.3571 114.665 35.4437L114.752 35.5302C114.752 35.6168 114.752 35.6168 114.84 35.7034C114.84 36.0497 114.84 36.1363 114.84 36.3095Z" fill="#00A7B8"/>
<path d="M126.35 36.7427C126.35 36.8293 126.35 36.8293 126.35 36.8293C126.35 36.8293 126.262 36.9158 126.175 36.9158C126.088 36.9158 126.001 37.0024 125.914 37.0024C125.827 37.0024 125.652 37.0024 125.478 37.0024C125.303 37.0024 125.216 37.0024 125.042 37.0024C124.955 37.0024 124.867 37.0024 124.78 36.9158C124.693 36.9158 124.693 36.8293 124.693 36.8293L124.606 36.7427V29.8163L122.164 36.7427C122.164 36.8293 122.077 36.8293 122.077 36.9158C122.077 36.9158 121.99 37.0024 121.903 37.0024C121.815 37.0024 121.728 37.0024 121.641 37.089C121.554 37.089 121.379 37.089 121.292 37.089C121.118 37.089 121.031 37.089 120.943 37.089C120.856 37.089 120.769 37.089 120.682 37.0024C120.595 37.0024 120.595 36.9158 120.507 36.9158L120.42 36.8293L118.066 29.9029V36.8293C118.066 36.9158 118.066 36.9158 118.066 36.9158L117.979 37.0024C117.892 37.0024 117.804 37.089 117.717 37.089C117.63 37.089 117.456 37.089 117.281 37.089C117.107 37.089 117.02 37.089 116.845 37.089C116.758 37.089 116.671 37.089 116.584 37.0024C116.496 37.0024 116.496 36.9158 116.409 36.9158V36.8293V29.2968C116.409 29.0371 116.496 28.8639 116.584 28.7773C116.671 28.6907 116.845 28.6042 117.02 28.6042H118.153C118.328 28.6042 118.502 28.6042 118.676 28.6907C118.851 28.6907 118.938 28.7773 119.025 28.8639C119.112 28.9505 119.2 29.0371 119.287 29.1236C119.374 29.2102 119.374 29.3834 119.461 29.5565L121.292 34.5782L123.211 29.5565C123.298 29.3834 123.298 29.2102 123.385 29.1236C123.472 29.0371 123.559 28.8639 123.647 28.7773C123.734 28.6907 123.821 28.6042 123.995 28.6042C124.083 28.6042 124.257 28.5176 124.431 28.5176H125.565C125.652 28.5176 125.827 28.5176 125.827 28.6042C125.914 28.6042 126.001 28.6907 126.001 28.7773C126.088 28.8639 126.088 28.8639 126.175 29.0371C126.175 29.1236 126.175 29.2102 126.175 29.2968V36.7427H126.35Z" fill="#00A7B8"/>
<path d="M138.906 32.5868C138.906 33.2795 138.819 33.8855 138.645 34.4916C138.47 35.0111 138.209 35.5305 137.86 35.8769C137.511 36.3098 137.075 36.5695 136.552 36.7427C136.029 36.9158 135.418 37.0024 134.808 37.0024C134.11 37.0024 133.587 36.9158 133.064 36.7427C132.541 36.5695 132.192 36.3098 131.843 35.9634C131.494 35.6171 131.233 35.1842 131.058 34.5782C130.884 34.0587 130.797 33.366 130.797 32.6734C130.797 31.9808 130.884 31.3747 131.058 30.8552C131.233 30.3357 131.494 29.8163 131.843 29.4699C132.192 29.1236 132.628 28.7773 133.151 28.6041C133.674 28.431 134.285 28.2578 134.895 28.2578C135.506 28.2578 136.116 28.3444 136.639 28.5176C137.162 28.6907 137.511 28.9505 137.86 29.2968C138.209 29.6431 138.47 30.076 138.645 30.6821C138.819 31.2015 138.906 31.8942 138.906 32.5868ZM137.075 32.6734C137.075 32.2405 137.075 31.8076 136.988 31.4613C136.901 31.115 136.814 30.7686 136.639 30.5089C136.465 30.2492 136.203 30.076 135.942 29.9028C135.68 29.7297 135.331 29.7297 134.895 29.7297C134.459 29.7297 134.11 29.8163 133.849 29.9894C133.587 30.1626 133.326 30.3357 133.151 30.5955C132.977 30.8552 132.89 31.2015 132.802 31.5479C132.715 31.8942 132.715 32.2405 132.715 32.6734C132.715 33.1063 132.715 33.5392 132.802 33.8855C132.89 34.2318 132.977 34.5782 133.151 34.8379C133.326 35.0976 133.5 35.2708 133.849 35.444C134.11 35.6171 134.459 35.6171 134.895 35.6171C135.331 35.6171 135.68 35.5305 135.942 35.3574C136.203 35.1842 136.465 35.0111 136.639 34.7513C136.814 34.4916 136.901 34.1453 136.988 33.7989C137.075 33.5392 137.075 33.1063 137.075 32.6734Z" fill="#00A7B8"/>
<path d="M147.015 36.7424C147.015 36.8289 147.015 36.8289 147.015 36.8289C147.015 36.8289 146.928 36.9155 146.841 36.9155C146.753 36.9155 146.666 36.9155 146.579 37.0021C146.492 37.0021 146.317 37.0021 146.143 37.0021C145.969 37.0021 145.881 37.0021 145.707 37.0021C145.62 37.0021 145.533 37.0021 145.445 36.9155C145.358 36.9155 145.358 36.8289 145.271 36.8289C145.271 36.7424 145.184 36.7424 145.184 36.7424V29.9025H142.132V36.7424C142.132 36.8289 142.132 36.8289 142.045 36.8289C142.045 36.8289 141.958 36.9155 141.87 36.9155C141.783 36.9155 141.696 36.9155 141.609 37.0021C141.522 37.0021 141.347 37.0021 141.173 37.0021C140.998 37.0021 140.911 37.0021 140.737 37.0021C140.65 37.0021 140.562 37.0021 140.475 36.9155C140.388 36.9155 140.388 36.8289 140.301 36.8289C140.301 36.7424 140.301 36.7424 140.301 36.7424V29.0367C140.301 28.8636 140.301 28.6904 140.475 28.6038C140.562 28.5172 140.737 28.4307 140.824 28.4307H146.492C146.666 28.4307 146.753 28.5172 146.841 28.6038C146.928 28.6904 146.928 28.8636 146.928 29.0367V36.7424H147.015Z" fill="#00A7B8"/>
<path d="M156.607 32.5868C156.607 33.2795 156.52 33.8855 156.346 34.4916C156.171 35.0111 155.91 35.5305 155.561 35.8769C155.212 36.3098 154.776 36.5695 154.253 36.7427C153.73 36.9158 153.12 37.0024 152.509 37.0024C151.812 37.0024 151.288 36.9158 150.765 36.7427C150.242 36.5695 149.806 36.3098 149.544 35.9634C149.196 35.6171 148.934 35.1842 148.76 34.5782C148.585 34.0587 148.498 33.366 148.498 32.6734C148.498 31.9808 148.585 31.3747 148.76 30.8552C148.934 30.3357 149.196 29.8163 149.544 29.4699C149.893 29.1236 150.329 28.7773 150.852 28.6041C151.376 28.431 151.986 28.2578 152.596 28.2578C153.207 28.2578 153.817 28.3444 154.34 28.5176C154.863 28.6907 155.212 28.9505 155.561 29.2968C155.91 29.6431 156.171 30.076 156.346 30.6821C156.52 31.2015 156.607 31.8942 156.607 32.5868ZM154.776 32.6734C154.776 32.2405 154.776 31.8076 154.689 31.4613C154.602 31.115 154.515 30.7686 154.34 30.5089C154.166 30.2492 153.991 30.076 153.643 29.9028C153.381 29.7297 153.032 29.7297 152.596 29.7297C152.16 29.7297 151.812 29.8163 151.55 29.9894C151.288 30.1626 151.027 30.3357 150.852 30.5955C150.678 30.8552 150.591 31.2015 150.504 31.5479C150.416 31.8942 150.416 32.2405 150.416 32.6734C150.416 33.1063 150.416 33.5392 150.504 33.8855C150.591 34.2318 150.678 34.5782 150.852 34.8379C151.027 35.0976 151.201 35.2708 151.55 35.444C151.812 35.6171 152.16 35.6171 152.596 35.6171C153.032 35.6171 153.381 35.5305 153.643 35.3574C153.904 35.1842 154.166 35.0111 154.34 34.7513C154.515 34.4916 154.602 34.1453 154.689 33.7989C154.689 33.5392 154.776 33.1063 154.776 32.6734Z" fill="#00A7B8"/>
<path d="M163.844 31.0284C163.844 31.5479 163.757 31.8942 163.67 32.3271C163.495 32.6734 163.321 33.0197 162.972 33.2795C162.711 33.5392 162.362 33.7124 161.926 33.8855C161.49 33.9721 161.054 34.0587 160.443 34.0587H159.746V36.7427C159.746 36.8293 159.746 36.8293 159.746 36.8293C159.746 36.8293 159.659 36.9158 159.572 36.9158C159.484 36.9158 159.397 37.0024 159.31 37.0024C159.223 37.0024 159.048 37.0024 158.874 37.0024C158.7 37.0024 158.525 37.0024 158.438 37.0024C158.351 37.0024 158.264 37.0024 158.176 36.9158C158.089 36.9158 158.089 36.8293 158.002 36.8293V36.7427V29.1236C158.002 28.9505 158.089 28.7773 158.176 28.6907C158.264 28.6042 158.438 28.5176 158.612 28.5176H160.618C160.792 28.5176 160.967 28.5176 161.228 28.5176C161.403 28.5176 161.664 28.6042 161.839 28.6042C162.1 28.6907 162.362 28.7773 162.623 28.8639C162.885 29.0371 163.147 29.1236 163.321 29.3834C163.495 29.5565 163.67 29.8163 163.757 30.076C163.844 30.4223 163.844 30.6821 163.844 31.0284ZM162.1 31.2016C162.1 30.9418 162.013 30.6821 161.926 30.5089C161.839 30.3358 161.664 30.1626 161.577 30.076C161.403 29.9894 161.228 29.9029 161.054 29.9029C160.879 29.9029 160.705 29.9029 160.531 29.9029H159.833V32.76H160.618C160.879 32.76 161.141 32.76 161.315 32.6734C161.49 32.5868 161.664 32.5003 161.751 32.3271C161.839 32.1539 161.926 32.0674 162.013 31.8076C162.013 31.5479 162.1 31.3747 162.1 31.2016Z" fill="#00A7B8"/>
<path d="M169.251 34.5785C169.077 35.098 168.902 35.4443 168.641 35.7906C168.466 36.1369 168.292 36.3967 168.03 36.5698C167.856 36.743 167.594 36.9162 167.333 37.0027C167.071 37.0893 166.809 37.0893 166.461 37.0893C166.373 37.0893 166.199 37.0893 166.112 37.0893C166.025 37.0893 165.85 37.0893 165.763 37.0027C165.676 37.0027 165.589 36.9162 165.501 36.9162C165.414 36.9162 165.327 36.8296 165.327 36.8296L165.24 36.743C165.24 36.743 165.24 36.6564 165.153 36.5698C165.153 36.4833 165.153 36.3967 165.153 36.3101C165.153 36.2235 165.153 36.0504 165.153 35.9638C165.153 35.704 165.153 35.5309 165.24 35.4443C165.24 35.3577 165.327 35.2711 165.414 35.2711C165.414 35.2711 165.501 35.2711 165.589 35.2711C165.676 35.2711 165.676 35.3577 165.763 35.3577C165.85 35.3577 165.937 35.4443 166.025 35.4443C166.112 35.4443 166.199 35.5309 166.373 35.5309C166.461 35.5309 166.548 35.5309 166.635 35.5309C166.722 35.5309 166.809 35.4443 166.897 35.4443C166.984 35.3577 167.071 35.2711 167.071 35.1846C167.158 35.098 167.245 34.9248 167.333 34.7517L164.542 29.0374C164.455 28.8642 164.455 28.7776 164.455 28.691C164.455 28.6045 164.455 28.5179 164.542 28.5179C164.629 28.4313 164.717 28.4313 164.804 28.4313C164.891 28.4313 165.065 28.4313 165.327 28.4313C165.501 28.4313 165.676 28.4313 165.85 28.4313C165.937 28.4313 166.112 28.4313 166.112 28.5179C166.199 28.5179 166.199 28.6045 166.286 28.6045C166.286 28.691 166.373 28.691 166.373 28.7776L167.594 31.375C167.769 31.6348 167.856 31.8945 167.943 32.1542C168.03 32.414 168.205 32.6737 168.292 33.02C168.379 32.7603 168.466 32.414 168.553 32.1542C168.641 31.8945 168.728 31.5482 168.902 31.2884L169.861 28.691C169.861 28.6045 169.949 28.6045 169.949 28.5179C169.949 28.5179 170.036 28.4313 170.123 28.4313C170.21 28.4313 170.297 28.4313 170.385 28.3447C170.472 28.3447 170.646 28.3447 170.82 28.3447C170.995 28.3447 171.169 28.3447 171.344 28.3447C171.431 28.3447 171.518 28.3447 171.605 28.4313C171.692 28.4313 171.692 28.5179 171.692 28.6045C171.692 28.691 171.692 28.7776 171.605 28.8642L169.251 34.5785Z" fill="#00A7B8"/>
<path d="M75.9492 2.90039C73.7692 2.90039 71.0661 3.50645 68.9733 5.58437C66.619 7.83546 66.3574 10.606 66.3574 12.251C66.3574 13.8961 66.7062 16.6666 69.0605 19.0043C71.0661 20.9956 73.5948 21.6017 75.862 21.6017C79.0883 21.6017 81.2682 20.3896 82.6634 18.9177C84.9305 16.6666 85.2793 13.8095 85.2793 12.251C85.2793 10.606 84.9305 7.83546 82.6634 5.58437C81.617 4.54541 79.4371 2.90039 75.9492 2.90039ZM75.862 18.3982C73.5076 18.3982 71.2405 16.4069 71.2405 12.251C71.2405 8.00862 73.5076 6.10385 75.862 6.10385C78.2163 6.10385 80.3962 8.0952 80.3962 12.251C80.3962 16.4069 78.1291 18.3982 75.862 18.3982ZM94.1734 3.24671H87.1976H85.6281C85.6281 4.37225 85.6281 5.32463 85.6281 5.49779C85.6281 5.84411 85.8897 6.10385 86.2385 6.10385C86.2385 6.10385 86.3257 6.10385 86.4129 6.10385H87.2848H87.6336V18.4848C87.4592 18.4848 87.372 18.4848 87.2848 18.4848C87.2848 18.4848 87.1976 18.4848 87.1104 18.4848C86.8489 18.4848 86.3257 18.4848 86.2385 18.4848C85.8897 18.4848 85.6281 18.7445 85.6281 19.0909C85.6281 19.264 85.6281 20.2164 85.6281 21.3419H87.1104H87.2848H93.9991C93.9991 20.2164 93.9991 19.3506 93.9991 19.1774C93.9991 18.8311 93.7375 18.5714 93.3887 18.5714C93.3015 18.5714 92.7783 18.5714 92.0807 18.5714V14.8484C92.0807 14.8484 92.0807 14.8484 94.3478 14.8484C100.539 14.8484 101.236 11.5584 101.236 8.961C101.149 5.67095 99.5797 3.24671 94.1734 3.24671ZM92.7783 11.9047H91.9063V6.10385H92.7783C94.3478 6.10385 96.4406 6.36359 96.4406 9.04758C96.4406 11.5584 94.3478 11.9047 92.7783 11.9047ZM102.37 3.24671H117.717V5.06489V7.40255V8.5281C116.583 8.5281 115.624 8.5281 115.45 8.5281C115.101 8.5281 114.839 8.26836 114.839 7.92204C114.839 7.83546 114.839 6.79649 114.839 6.01727H112.136V18.3982C113.183 18.3982 113.967 18.3982 114.054 18.3982C114.403 18.3982 114.665 18.658 114.665 19.0043C114.665 19.1774 114.665 20.1298 114.665 21.2554H106.817H106.643H105.16C105.16 20.1298 105.16 19.1774 105.16 19.0043C105.16 18.658 105.422 18.3982 105.771 18.3982C105.858 18.3982 106.381 18.3982 106.643 18.3982C106.73 18.3982 106.817 18.3982 106.817 18.3982C106.991 18.3982 107.34 18.3982 107.689 18.3982V6.01727H105.073C105.073 6.79649 105.073 7.83546 105.073 7.92204C105.073 8.26836 104.812 8.5281 104.463 8.5281C104.288 8.5281 103.329 8.5281 102.196 8.5281V7.6623V5.06489V3.24671H102.37ZM120.42 3.24671H134.023V8.35494C132.889 8.35494 131.93 8.35494 131.756 8.35494C131.407 8.35494 131.145 8.0952 131.145 7.74888C131.145 7.6623 131.145 6.79649 131.145 6.01727H125.129V10.4329H129.75V13.3766H125.129V18.3982C127.309 18.3982 129.663 18.3982 131.145 18.3982V18.3116C131.145 17.5324 131.145 16.4069 131.145 16.3203C131.145 15.974 131.407 15.7142 131.756 15.7142C131.93 15.7142 132.889 15.7142 134.023 15.7142V17.7056V19.1774V21.1688H132.802H131.232H118.85C118.85 20.0432 118.85 19.0909 118.85 18.9177C118.85 18.5714 119.112 18.3116 119.461 18.3116C119.461 18.3116 119.984 18.3116 120.769 18.3116V6.01727H120.42C120.42 6.01727 120.246 6.01727 120.158 6.01727C119.897 6.01727 119.548 6.01727 119.461 6.01727C119.112 6.01727 118.85 5.75753 118.85 5.41121C118.85 5.23805 118.85 4.28567 118.85 3.16013H120.42V3.24671ZM170.994 18.4848C170.994 18.4848 170.559 18.4848 170.035 18.4848L165.937 6.10385C166.809 6.10385 167.419 6.10385 167.507 6.10385C167.855 6.10385 168.117 5.84411 168.117 5.49779C168.117 5.32463 168.117 4.37225 168.117 3.24671H157.653H157.479H155.997C155.997 4.37225 155.997 5.32463 155.997 5.49779C155.997 5.84411 156.258 6.10385 156.607 6.10385C156.694 6.10385 157.217 6.10385 157.479 6.10385C157.566 6.10385 157.653 6.10385 157.653 6.10385C157.828 6.10385 158.089 6.10385 158.525 6.10385L154.514 18.4848C153.817 18.4848 153.119 18.4848 152.421 18.4848L146.579 11.5584L151.811 6.10385C152.509 6.10385 153.032 6.10385 153.119 6.10385C153.468 6.10385 153.729 5.84411 153.729 5.49779C153.729 5.32463 153.729 4.37225 153.729 3.24671H147.887H147.713H145.969C145.969 4.37225 145.969 5.32463 145.969 5.49779C145.969 5.84411 146.23 6.10385 146.579 6.10385C146.666 6.10385 147.19 6.10385 147.538 6.10385L141.87 11.5584V6.10385C142.655 6.10385 143.178 6.10385 143.178 6.10385C143.527 6.10385 143.789 5.84411 143.789 5.49779C143.789 5.32463 143.789 4.37225 143.789 3.24671H137.075H136.9H135.418C135.418 4.37225 135.418 5.32463 135.418 5.49779C135.418 5.84411 135.679 6.10385 136.028 6.10385C136.115 6.10385 136.639 6.10385 136.9 6.10385C136.987 6.10385 137.075 6.10385 137.075 6.10385C137.162 6.10385 137.249 6.10385 137.423 6.10385V18.4848C137.249 18.4848 137.162 18.4848 137.075 18.4848C137.075 18.4848 136.987 18.4848 136.9 18.4848C136.639 18.4848 136.115 18.4848 136.028 18.4848C135.679 18.4848 135.418 18.7445 135.418 19.0909C135.418 19.264 135.418 20.2164 135.418 21.3419H136.9H137.075H143.789C143.789 20.2164 143.789 19.264 143.789 19.0909C143.789 18.7445 143.527 18.4848 143.178 18.4848C143.091 18.4848 142.568 18.4848 141.87 18.4848V11.9913L147.19 18.4848C147.19 18.4848 147.19 18.4848 147.102 18.4848C147.102 18.4848 147.015 18.4848 146.928 18.4848C146.666 18.4848 146.143 18.4848 146.056 18.4848C145.707 18.4848 145.446 18.7445 145.446 19.0909C145.446 19.264 145.446 20.2164 145.446 21.3419H146.928H147.102H160.269C160.269 20.2164 160.269 19.264 160.269 19.0909C160.269 18.7445 160.008 18.4848 159.659 18.4848C159.659 18.4848 159.048 18.4848 158.176 18.4848L159.223 14.935H164.455L165.501 18.4848C165.327 18.4848 165.239 18.4848 165.065 18.4848C165.065 18.4848 164.978 18.4848 164.891 18.4848C164.629 18.4848 164.106 18.4848 164.019 18.4848C163.67 18.4848 163.408 18.7445 163.408 19.0909C163.408 19.264 163.408 20.2164 163.408 21.3419H164.891H165.065H171.518C171.518 20.2164 171.518 19.264 171.518 19.0909C171.605 18.7445 171.343 18.4848 170.994 18.4848ZM159.92 12.5974L161.839 6.01727C161.839 6.01727 161.839 6.01727 161.926 6.01727L163.844 12.5974H159.92Z" fill="#F58233"/>
<path d="M55.1961 18.0949V37.8352H27.0312C29.6472 28.0517 27.5544 35.4975 29.6472 27.7919C37.1462 28.0517 46.5635 25.6274 55.1961 18.0949ZM0 7.0127V37.8352H10.0277C10.4637 34.0257 11.1613 28.7443 10.7253 23.03C5.75504 18.4413 1.83115 12.0343 0 7.0127Z" fill="#00A7B8"/>
<path d="M0 7.0127V37.8352H10.0277C10.4637 34.0257 11.1613 28.7443 10.7253 23.03C5.75504 18.4413 1.83115 12.0343 0 7.0127Z" fill="#00A7B8"/>
<path d="M29.5603 27.7927C27.4675 35.5849 29.5603 28.0524 26.9443 37.836H55.1092V18.0957C46.5638 25.6282 37.1465 28.0524 29.5603 27.7927Z" fill="#00A7B8"/>
<path d="M55.1961 3.80952C55.1961 1.7316 53.4521 0 51.3594 0C49.6154 0 0 0 0 0C3.6623 9.61039 10.8997 17.316 21.8866 20.4329C29.8216 22.684 44.0348 23.29 55.1961 13.9394C55.1961 11.6883 55.1961 5.45455 55.1961 3.80952ZM23.7177 19.3074C20.6658 19.3074 18.2243 16.8831 18.2243 13.8528C18.2243 10.8225 20.6658 8.39827 23.7177 8.39827C26.7697 8.39827 29.2112 10.8225 29.2112 13.8528C29.124 16.8831 26.6825 19.3074 23.7177 19.3074Z" fill="#F58233"/>
</svg>
