<svg width="22" height="22" viewBox="0 0 22 22" fill="none" xmlns="http://www.w3.org/2000/svg">
<path d="M17.3403 16.0923H16.133L16.1386 15.391C16.1386 15.0793 16.3946 14.8243 16.7072 14.8243H16.7842C17.0976 14.8243 17.3543 15.0793 17.3543 15.391L17.3403 16.0923ZM12.8117 14.5894C12.5055 14.5894 12.2549 14.7952 12.2549 15.0473V18.458C12.2549 18.7095 12.5055 18.9149 12.8117 18.9149C13.1193 18.9149 13.3701 18.7095 13.3701 18.458V15.0473C13.3701 14.795 13.1193 14.5894 12.8117 14.5894ZM20.1663 12.6815V19.1701C20.1663 20.7264 18.8168 22 17.167 22H4.83259C3.18234 22 1.83301 20.7264 1.83301 19.1701V12.6815C1.83301 11.1252 3.18234 9.85136 4.83259 9.85136H17.167C18.8168 9.85136 20.1663 11.1252 20.1663 12.6815ZM5.65539 19.8746L5.65441 13.0396L7.18341 13.0401V12.0274L3.10754 12.0213V13.0169L4.37988 13.0206V19.8746H5.65539ZM10.2387 14.0578H8.96394V17.7076C8.96394 18.2356 8.99597 18.4996 8.96199 18.5927C8.85834 18.8758 8.39243 19.1764 8.21081 18.6232C8.18001 18.5264 8.20714 18.2343 8.20665 17.7327L8.20152 14.0578H6.93383L6.93774 17.675C6.93872 18.2294 6.92528 18.6428 6.94214 18.831C6.97319 19.1627 6.96219 19.5494 7.26994 19.7704C7.84341 20.1835 8.94268 19.7088 9.21768 19.1182L9.21523 19.8719L10.239 19.8731L10.2387 14.0578ZM14.3168 18.2373L14.3141 15.1996C14.3131 14.0419 13.4471 13.3486 12.2715 14.2853L12.2767 12.0269L11.0033 12.0289L10.9972 19.8242L12.0444 19.809L12.1398 19.3236C13.4776 20.5509 14.3187 19.7098 14.3168 18.2373ZM18.3064 17.8347L17.3506 17.8398C17.3501 17.8777 17.3486 17.9214 17.3481 17.9691V18.5025C17.3481 18.788 17.1123 19.0205 16.8258 19.0205H16.6385C16.3515 19.0205 16.1157 18.788 16.1157 18.5025V18.4433V17.8567V17.0996H18.3044V16.2758C18.3044 15.6738 18.289 15.072 18.2391 14.7278C18.0825 13.639 16.5542 13.4662 15.7822 14.0235C15.54 14.1976 15.3549 14.4305 15.2474 14.7434C15.1389 15.0566 15.0848 15.4843 15.0848 16.0277V17.8391C15.0853 20.8501 18.7427 20.4246 18.3064 17.8347ZM13.4033 8.00115C13.4691 8.16102 13.5712 8.29058 13.7098 8.38836C13.8467 8.48467 14.0217 8.53307 14.2315 8.53307C14.4153 8.53307 14.5781 8.48344 14.7199 8.38102C14.8612 8.27909 14.9802 8.1268 15.0775 7.92367L15.0533 8.4238H16.4743V2.38089H15.3557V7.084C15.3557 7.33871 15.1459 7.54722 14.8895 7.54722C14.6346 7.54722 14.4241 7.33871 14.4241 7.084V2.38089H13.2566V6.45676C13.2566 6.97596 13.2662 7.32209 13.2816 7.4976C13.2975 7.67189 13.3375 7.83909 13.4033 8.00115ZM9.09717 4.58822C9.09717 4.00816 9.14557 3.5552 9.24163 3.22862C9.33843 2.90327 9.51223 2.64171 9.76401 2.44444C10.0151 2.2462 10.3365 2.14696 10.7274 2.14696C11.0561 2.14696 11.3377 2.21149 11.5729 2.33787C11.8093 2.46498 11.9916 2.62998 12.118 2.8336C12.2468 3.03796 12.3343 3.24793 12.381 3.4628C12.4287 3.6806 12.4522 4.00913 12.4522 4.45231V5.98058C12.4522 6.54109 12.4297 6.95347 12.3859 7.21527C12.3427 7.4778 12.2498 7.72127 12.1058 7.94958C11.964 8.17544 11.7809 8.34436 11.559 8.45216C11.3346 8.56093 11.0779 8.61422 10.788 8.61422C10.4641 8.61422 10.1913 8.56949 9.96641 8.47611C9.74079 8.38322 9.5665 8.24316 9.44232 8.05713C9.31692 7.87087 9.22868 7.64402 9.17539 7.37953C9.12185 7.11529 9.09643 6.71782 9.09643 6.18811L9.09717 4.58822ZM10.2101 6.98867C10.2101 7.33089 10.4648 7.61029 10.775 7.61029C11.0855 7.61029 11.3392 7.33089 11.3392 6.98867V3.77178C11.3392 3.43004 11.0855 3.15064 10.775 3.15064C10.4648 3.15064 10.2101 3.43004 10.2101 3.77178V6.98867ZM6.2775 8.613H7.61803L7.6195 3.97833L9.2035 0.00806667H7.73732L6.89521 2.95704L6.04112 0H4.5901L6.2753 3.98053L6.2775 8.613Z" fill="#00A7B8"/>
</svg>
