<svg width="24" height="24" viewBox="0 0 24 24" fill="none" xmlns="http://www.w3.org/2000/svg">
<path fill-rule="evenodd" clip-rule="evenodd" d="M8.1385 8C8.28604 7.03218 8.55244 6.21074 8.94441 5.57518C9.53832 4.61218 10.4613 4 11.9995 4C13.5377 4 14.4607 4.61218 15.0546 5.57518C15.4466 6.21074 15.713 7.03218 15.8605 8H8.1385ZM5.99951 10C5.99951 10.5523 6.44723 11 6.99951 11C7.5518 11 7.99951 10.5523 7.99951 10H15.9995C15.9995 10.5523 16.4472 11 16.9995 11C17.5518 11 17.9995 10.5523 17.9995 10H19.5724C20.2014 10 20.6742 10.5738 20.554 11.1912L19.1903 18.1912C19.0988 18.6609 18.6873 19 18.2088 19H6.09608C5.62918 19 5.22442 18.6769 5.12095 18.2216L3.53004 11.2216C3.38782 10.5959 3.86345 10 4.50517 10H5.99951ZM6.11909 8C6.28322 6.71777 6.63 5.51783 7.24212 4.52532C8.2107 2.95482 9.78768 2 11.9995 2C14.2113 2 15.7883 2.95482 16.7569 4.52532C17.369 5.51783 17.7158 6.71777 17.8799 8H19.5724C21.4594 8 22.8779 9.72143 22.5171 11.5736L21.1534 18.5736C20.8789 19.9828 19.6445 21 18.2088 21H6.09608C4.69538 21 3.48111 20.0307 3.17068 18.6649L1.57977 11.6649C1.15312 9.78757 2.58001 8 4.50517 8H6.11909Z" fill="#1C1C1C"/>
</svg>
