<svg xmlns="http://www.w3.org/2000/svg" xmlns:xlink="http://www.w3.org/1999/xlink" version="1.1" preserveAspectRatio="xMidYMid meet" viewBox="0 0 640 640" width="200" height="200"><defs><path d="" id="a1ODmEYquk"/><path d="" id="d1nLE0q7L1"/><path d="M168.08 640L487.7 640L473.51 639.21L453.68 637.71L423.7 634.54L393.7 630.21L368.55 626.2L339.01 620.34L321.18 616.17L293.2 609.5L272.39 603.26L218.06 587.43L167.7 571.43L168.08 640Z" id="a5gsMhIdyL"/></defs><g><g><g><use xlink:href="#a1ODmEYquk" opacity="1" fill-opacity="0" stroke="#000000" stroke-width="1" stroke-opacity="1"/></g></g><g><g><use xlink:href="#d1nLE0q7L1" opacity="1" fill-opacity="0" stroke="#000000" stroke-width="1" stroke-opacity="1"/></g></g><g><g><filter id="shadow3448813" x="158.7" y="562.43" width="339" height="87.57" filterUnits="userSpaceOnUse" primitiveUnits="userSpaceOnUse"><feFlood/><feComposite in2="SourceAlpha" operator="in"/><feGaussianBlur stdDeviation="1"/><feOffset dx="1" dy="1" result="afterOffset"/><feFlood flood-color="#f1e3db" flood-opacity="0.5"/><feComposite in2="afterOffset" operator="in"/><feMorphology operator="dilate" radius="1"/><feComposite in2="SourceAlpha" operator="out"/></filter><path d="M168.08 640L487.7 640L473.51 639.21L453.68 637.71L423.7 634.54L393.7 630.21L368.55 626.2L339.01 620.34L321.18 616.17L293.2 609.5L272.39 603.26L218.06 587.43L167.7 571.43L168.08 640Z" id="e2DKS77i60" fill="white" fill-opacity="1" filter="url(#shadow3448813)"/></g><use xlink:href="#a5gsMhIdyL" opacity="1" fill="#f1e3db" fill-opacity="1"/><g><use xlink:href="#a5gsMhIdyL" opacity="1" fill-opacity="0" stroke="#f1e3db" stroke-width="1" stroke-opacity="1"/></g><g><filter id="shadow16530070" x="158.7" y="562.43" width="339" height="87.57" filterUnits="userSpaceOnUse" primitiveUnits="userSpaceOnUse"><feFlood/><feComposite in2="SourceAlpha" operator="out"/><feGaussianBlur stdDeviation="1"/><feOffset dx="1" dy="1" result="afterOffset"/><feFlood flood-color="#ffffff" flood-opacity="0.8"/><feComposite in2="afterOffset" operator="in"/><feMorphology operator="dilate" radius="1"/><feComposite in2="SourceAlpha" operator="in"/></filter><path d="M168.08 640L487.7 640L473.51 639.21L453.68 637.71L423.7 634.54L393.7 630.21L368.55 626.2L339.01 620.34L321.18 616.17L293.2 609.5L272.39 603.26L218.06 587.43L167.7 571.43L168.08 640Z" id="a8dYt4VbjS" fill="white" fill-opacity="1" filter="url(#shadow16530070)"/></g></g></g></svg>