<svg width="22" height="22" viewBox="0 0 22 22" fill="none" xmlns="http://www.w3.org/2000/svg">
<g clip-path="url(#clip0)">
<path d="M21.804 15.9198C21.7448 15.8208 21.379 15.026 19.6189 13.3924C17.7763 11.6818 18.0238 11.9595 20.2432 9.00169C21.5949 7.20031 22.1354 6.10023 21.9662 5.62994C21.8053 5.18166 20.8111 5.29992 20.8111 5.29992L17.5054 5.31917C17.5054 5.31917 17.2606 5.28617 17.0777 5.3948C16.9003 5.50206 16.7862 5.74958 16.7862 5.74958C16.7862 5.74958 16.2623 7.14393 15.5637 8.32927C14.091 10.8306 13.5011 10.9626 13.2604 10.8072C12.7008 10.4455 12.841 9.35234 12.841 8.57679C12.841 6.15248 13.2082 5.14178 12.1246 4.88051C11.7643 4.79388 11.5003 4.73613 10.5804 4.7265C9.40052 4.71412 8.40082 4.73062 7.83565 5.00702C7.45887 5.19128 7.16872 5.60244 7.34611 5.62582C7.56475 5.65469 8.05979 5.7592 8.32244 6.11673C8.66209 6.57739 8.64971 7.61421 8.64971 7.61421C8.64971 7.61421 8.84497 10.4676 8.19455 10.8223C7.74764 11.0657 7.13572 10.5693 5.8225 8.29901C5.15007 7.13705 4.64128 5.85133 4.64128 5.85133C4.64128 5.85133 4.54365 5.61207 4.36901 5.48418C4.15725 5.32879 3.86022 5.27929 3.86022 5.27929L0.716736 5.29854C0.716736 5.29854 0.245075 5.31229 0.0718124 5.51718C-0.0821992 5.70007 0.0594365 6.07685 0.0594365 6.07685C0.0594365 6.07685 2.52087 11.8344 5.30683 14.7372C7.86315 17.3981 10.7646 17.2234 10.7646 17.2234H12.0792C12.0792 17.2234 12.4766 17.1794 12.6788 16.9608C12.8658 16.76 12.8589 16.3832 12.8589 16.3832C12.8589 16.3832 12.8328 14.619 13.6523 14.3591C14.4595 14.1033 15.4964 16.0642 16.5951 16.8191C17.4256 17.3898 18.0568 17.2647 18.0568 17.2647L20.9954 17.2234C20.9954 17.2234 22.5328 17.1285 21.804 15.9198Z" fill="#00A7B8"/>
</g>
<defs>
<clipPath id="clip0">
<rect width="22" height="22" fill="white"/>
</clipPath>
</defs>
</svg>
