<svg width="24" height="24" viewBox="0 0 24 24" fill="none" xmlns="http://www.w3.org/2000/svg">
<path fill-rule="evenodd" clip-rule="evenodd" d="M20.75 4.5H7.25C6.55964 4.5 6 5.05964 6 5.75C6 6.44036 6.55964 7 7.25 7H20.75C21.4404 7 22 6.44036 22 5.75C22 5.05964 21.4404 4.5 20.75 4.5ZM7.25 10.75H20.75C21.4404 10.75 22 11.3096 22 12C22 12.6904 21.4404 13.25 20.75 13.25H7.25C6.55964 13.25 6 12.6904 6 12C6 11.3096 6.55964 10.75 7.25 10.75ZM7.25 17H20.75C21.4404 17 22 17.5596 22 18.25C22 18.9404 21.4404 19.5 20.75 19.5H7.25C6.55964 19.5 6 18.9404 6 18.25C6 17.5596 6.55964 17 7.25 17ZM3.25 19.5C2.55964 19.5 2 18.9404 2 18.25C2 17.5596 2.55964 17 3.25 17C3.94036 17 4.5 17.5596 4.5 18.25C4.5 18.9404 3.94036 19.5 3.25 19.5ZM2 12C2 12.6904 2.55964 13.25 3.25 13.25C3.94036 13.25 4.5 12.6904 4.5 12C4.5 11.3096 3.94036 10.75 3.25 10.75C2.55964 10.75 2 11.3096 2 12ZM3.25 7C2.55964 7 2 6.44036 2 5.75C2 5.05964 2.55964 4.5 3.25 4.5C3.94036 4.5 4.5 5.05964 4.5 5.75C4.5 6.44036 3.94036 7 3.25 7Z" fill="#1C1C1C"/>
</svg>
