<svg width="100" height="24" viewBox="0 0 100 24" fill="none" xmlns="http://www.w3.org/2000/svg">
<path d="M44.4051 22.0454C44.4051 22.0974 44.4051 22.0974 44.4051 22.0974C44.4051 22.0974 44.3547 22.1493 44.3043 22.1493C44.2539 22.1493 44.2035 22.2013 44.1531 22.2013C44.1027 22.2013 44.0019 22.2013 43.9011 22.2013C43.8003 22.2013 43.7499 22.2013 43.6995 22.2013C43.6491 22.2013 43.5987 22.2013 43.5483 22.1493C43.4979 22.1493 43.4979 22.0974 43.4475 22.0974V22.0454V17.8896L42.0362 22.0454C42.0362 22.0974 42.0362 22.0974 41.9858 22.1493C41.9354 22.1493 41.9354 22.2013 41.885 22.2013C41.8346 22.2013 41.7842 22.2013 41.7338 22.2532C41.6834 22.2532 41.5826 22.2532 41.5322 22.2532C41.4314 22.2532 41.381 22.2532 41.3305 22.2532C41.2801 22.2532 41.2297 22.2532 41.1793 22.2013C41.1289 22.2013 41.1289 22.1493 41.0785 22.1493L41.0281 22.0974L39.6672 17.9415V22.0974C39.6672 22.1493 39.6672 22.1493 39.6672 22.1493C39.6672 22.1493 39.6168 22.2013 39.5664 22.2013C39.516 22.2013 39.4656 22.2532 39.4152 22.2532C39.3648 22.2532 39.264 22.2532 39.1632 22.2532C39.0624 22.2532 39.012 22.2532 38.9112 22.2532C38.8608 22.2532 38.8104 22.2532 38.76 22.2013C38.7096 22.2013 38.7096 22.1493 38.7096 22.1493L38.6592 22.0974V17.5779C38.6592 17.4221 38.7096 17.3182 38.76 17.2662C38.8104 17.2143 38.9112 17.1623 39.012 17.1623H39.6672C39.768 17.1623 39.8689 17.1623 39.9697 17.2143C40.0705 17.2143 40.1209 17.2662 40.1713 17.3182C40.2217 17.3701 40.2721 17.4221 40.3225 17.474C40.3729 17.526 40.4233 17.6299 40.4233 17.7338L41.4818 20.7467L42.5906 17.7338C42.641 17.6299 42.641 17.526 42.6914 17.474C42.7418 17.4221 42.7922 17.3182 42.8426 17.2662C42.893 17.2143 42.9434 17.1623 43.0443 17.1623C43.0947 17.1623 43.1955 17.1104 43.2963 17.1104H43.9515C44.0019 17.1104 44.0523 17.1104 44.1027 17.1623C44.1531 17.1623 44.2035 17.2143 44.2539 17.2662C44.3043 17.3182 44.3043 17.3182 44.3043 17.4221C44.3043 17.474 44.3547 17.526 44.3547 17.5779V22.0454H44.4051Z" fill="#00A7B8"/>
<path d="M49.0419 20.4869C49.0419 20.7467 48.9915 20.9545 48.9411 21.1622C48.8907 21.37 48.7395 21.5259 48.5883 21.6817C48.4371 21.8376 48.2354 21.9415 47.9834 22.0454C47.7314 22.1493 47.3786 22.2012 46.9754 22.2012H45.8161C45.7657 22.2012 45.7153 22.2012 45.7153 22.2012C45.6649 22.2012 45.6649 22.1493 45.6145 22.1493C45.6145 22.1493 45.5641 22.0973 45.5641 22.0454C45.5641 21.9934 45.5137 21.9415 45.5137 21.8895V17.2661C45.5137 17.2142 45.5137 17.2142 45.5641 17.2142C45.5641 17.2142 45.6145 17.1622 45.6649 17.1622C45.7153 17.1622 45.7657 17.1622 45.8161 17.1103C45.8665 17.1103 45.9673 17.1103 46.0681 17.1103C46.1689 17.1103 46.2697 17.1103 46.3201 17.1103C46.3705 17.1103 46.4209 17.1103 46.4713 17.1622C46.5217 17.1622 46.5217 17.2142 46.5721 17.2142V17.2661V19.0324H47.177C47.5298 19.0324 47.8322 19.0843 48.0338 19.1363C48.2354 19.1882 48.4371 19.2921 48.5883 19.448C48.7395 19.6038 48.8403 19.7596 48.9411 19.9155C48.9915 20.0194 49.0419 20.2272 49.0419 20.4869ZM47.9834 20.5908C47.9834 20.4869 47.9834 20.3311 47.933 20.2791C47.8826 20.1752 47.8322 20.1233 47.7818 20.0194C47.681 19.9674 47.6306 19.9155 47.4794 19.8635C47.3786 19.7597 47.2274 19.7596 46.9754 19.7596H46.4713V21.37H47.0258C47.2778 21.37 47.429 21.37 47.5802 21.3181C47.681 21.2661 47.7818 21.2142 47.8322 21.1103C47.8826 21.0584 47.933 20.9545 47.9834 20.8506C47.9834 20.7467 47.9834 20.6947 47.9834 20.5908ZM50.6548 22.0454C50.6548 22.0973 50.6548 22.0973 50.6548 22.0973C50.6548 22.0973 50.6044 22.1493 50.554 22.1493C50.5036 22.1493 50.4532 22.1493 50.4028 22.2012C50.3524 22.2012 50.2516 22.2012 50.1508 22.2012C50.05 22.2012 49.9996 22.2012 49.8987 22.2012C49.8483 22.2012 49.7979 22.2012 49.7475 22.1493C49.6971 22.1493 49.6971 22.0973 49.6467 22.0973C49.6467 22.0454 49.5963 22.0454 49.5963 22.0454V17.2142C49.5963 17.1622 49.5963 17.1622 49.6467 17.1622C49.6467 17.1622 49.6971 17.1103 49.7475 17.1103C49.7979 17.1103 49.8483 17.1103 49.8987 17.0583C49.9492 17.0583 50.05 17.0583 50.1508 17.0583C50.2516 17.0583 50.302 17.0583 50.4028 17.0583C50.4532 17.0583 50.5036 17.0584 50.554 17.1103C50.6044 17.1103 50.6044 17.1622 50.6548 17.1622V17.2142V22.0454Z" fill="#00A7B8"/>
<path d="M58.0141 23.3441V23.396L57.9637 23.448C57.9133 23.448 57.8629 23.448 57.8125 23.448C57.7621 23.448 57.6613 23.448 57.6109 23.448C57.5101 23.448 57.4597 23.448 57.4093 23.448C57.3589 23.448 57.3085 23.448 57.2581 23.448C57.2077 23.448 57.2077 23.396 57.2077 23.396V23.3441V22.1493H53.9315V23.3441V23.396L53.881 23.448C53.8306 23.448 53.7802 23.448 53.7298 23.448C53.6794 23.448 53.629 23.448 53.5282 23.448C53.4274 23.448 53.377 23.448 53.3266 23.448C53.2762 23.448 53.2258 23.448 53.1754 23.448C53.125 23.448 53.125 23.396 53.125 23.396V23.3441V21.5259C53.125 21.4739 53.125 21.37 53.1754 21.37C53.2258 21.3181 53.2762 21.3181 53.3266 21.3181H53.5282C53.5786 21.2142 53.629 21.1103 53.6794 21.0584C53.7298 20.9545 53.7802 20.8506 53.8306 20.7467C53.881 20.5908 53.9315 20.4869 53.9819 20.2791C54.0323 20.1233 54.0827 19.8635 54.1331 19.6038C54.1835 19.3441 54.2339 19.0324 54.2843 18.6687C54.3347 18.3051 54.3851 17.8895 54.4355 17.422C54.4355 17.3181 54.4859 17.2142 54.5363 17.1622C54.5867 17.1103 54.6371 17.0583 54.7379 17.0583H57.2581C57.3589 17.0583 57.4093 17.1103 57.4597 17.1622C57.5101 17.2142 57.5605 17.3181 57.5605 17.422V21.3181H57.9637C58.0141 21.3181 58.0645 21.3181 58.1149 21.37C58.1653 21.422 58.1653 21.4739 58.1653 21.5259V23.3441H58.0141ZM56.4012 17.9415H55.2419C55.1915 18.3571 55.1411 18.6687 55.0907 18.9804C55.0403 19.2921 54.9899 19.5519 54.9395 19.7596C54.8891 19.9674 54.8387 20.1752 54.7883 20.3311C54.7379 20.4869 54.6875 20.6428 54.6371 20.7467C54.5867 20.8506 54.5363 20.9545 54.4859 21.0584C54.4355 21.1622 54.3851 21.2142 54.3347 21.3181H56.3508V17.9415H56.4012Z" fill="#00A7B8"/>
<path d="M62.7517 21.7856C62.8021 21.8895 62.8021 21.9415 62.8021 21.9934C62.8021 22.0454 62.8021 22.0973 62.7517 22.0973C62.7013 22.0973 62.6509 22.1493 62.6005 22.1493C62.5501 22.1493 62.4493 22.1493 62.2981 22.1493C62.1469 22.1493 62.0461 22.1493 61.9957 22.1493C61.9453 22.1493 61.8949 22.1493 61.8445 22.1493C61.7941 22.1493 61.7941 22.0973 61.7437 22.0973C61.7437 22.0454 61.6933 22.0454 61.6933 21.9934L61.3404 20.9545H59.4755L59.1731 21.9415C59.1731 21.9934 59.1731 21.9934 59.1227 22.0454C59.1227 22.0973 59.0723 22.0973 59.0219 22.0973C58.9715 22.0973 58.9211 22.0973 58.8707 22.1493C58.8203 22.1493 58.7195 22.1493 58.6187 22.1493C58.5179 22.1493 58.4171 22.1493 58.3667 22.1493C58.3162 22.1493 58.2658 22.0973 58.2154 22.0973C58.2154 22.0454 58.165 22.0454 58.165 21.9934C58.165 21.9415 58.2154 21.8376 58.2154 21.7856L59.7275 17.2661C59.7275 17.2142 59.7779 17.1622 59.7779 17.1622C59.7779 17.1103 59.8283 17.1103 59.8787 17.1103C59.9292 17.1103 59.9796 17.1103 60.0804 17.0583C60.1812 17.0583 60.282 17.0583 60.3828 17.0583C60.534 17.0583 60.6348 17.0583 60.7356 17.0583C60.8364 17.0583 60.8868 17.0584 60.9372 17.1103C60.9876 17.1103 61.038 17.1622 61.038 17.1622C61.038 17.1622 61.0884 17.2142 61.0884 17.2661L62.7517 21.7856ZM60.534 18.0454L59.8283 20.1752H61.2396L60.534 18.0454Z" fill="#00A7B8"/>
<path d="M66.3814 21.7856C66.3814 21.8895 66.3814 21.9415 66.3814 21.9934C66.3814 22.0454 66.3814 22.0973 66.331 22.0973C66.331 22.1493 66.2806 22.1493 66.2806 22.1493H66.2302H63.7604C63.6596 22.1493 63.6092 22.0973 63.5588 22.0454C63.5084 21.9934 63.458 21.8895 63.458 21.7856V17.37C63.458 17.2661 63.5084 17.1622 63.5588 17.1103C63.6092 17.0584 63.71 17.0583 63.7604 17.0583H66.2302H66.2806L66.331 17.1103C66.331 17.1622 66.3814 17.1622 66.3814 17.2142C66.3814 17.2661 66.3814 17.3181 66.3814 17.422C66.3814 17.4739 66.3814 17.5778 66.3814 17.6298C66.3814 17.6817 66.3814 17.7337 66.331 17.7337C66.331 17.7856 66.2806 17.7856 66.2806 17.7856H66.2302H64.4661V19.0324H65.9782H66.0286L66.079 19.0843C66.079 19.1363 66.079 19.1363 66.1294 19.1882C66.1294 19.2402 66.1294 19.2921 66.1294 19.396C66.1294 19.448 66.1294 19.5519 66.1294 19.6038C66.1294 19.6558 66.1294 19.7077 66.079 19.7077C66.079 19.7596 66.0286 19.7596 66.0286 19.7596H65.9782H64.4661V21.2142H66.2302C66.2302 21.2142 66.2806 21.2142 66.2806 21.2661L66.331 21.3181C66.331 21.37 66.331 21.37 66.3814 21.422C66.3814 21.6298 66.3814 21.6817 66.3814 21.7856Z" fill="#00A7B8"/>
<path d="M73.0341 22.0454C73.0341 22.0974 73.0341 22.0974 73.0341 22.0974C73.0341 22.0974 72.9837 22.1493 72.9333 22.1493C72.8828 22.1493 72.8324 22.2013 72.782 22.2013C72.7316 22.2013 72.6308 22.2013 72.53 22.2013C72.4292 22.2013 72.3788 22.2013 72.278 22.2013C72.2276 22.2013 72.1772 22.2013 72.1268 22.1493C72.0764 22.1493 72.0764 22.0974 72.0764 22.0974L72.026 22.0454V17.8896L70.6147 22.0454C70.6147 22.0974 70.5643 22.0974 70.5643 22.1493C70.5643 22.1493 70.5139 22.2013 70.4635 22.2013C70.4131 22.2013 70.3627 22.2013 70.3123 22.2532C70.2619 22.2532 70.1611 22.2532 70.1107 22.2532C70.0099 22.2532 69.9595 22.2532 69.9091 22.2532C69.8587 22.2532 69.8082 22.2532 69.7578 22.2013C69.7074 22.2013 69.7074 22.1493 69.657 22.1493L69.6066 22.0974L68.2457 17.9415V22.0974C68.2457 22.1493 68.2457 22.1493 68.2457 22.1493L68.1953 22.2013C68.1449 22.2013 68.0945 22.2532 68.0441 22.2532C67.9937 22.2532 67.8929 22.2532 67.7921 22.2532C67.6913 22.2532 67.6409 22.2532 67.5401 22.2532C67.4897 22.2532 67.4393 22.2532 67.3889 22.2013C67.3385 22.2013 67.3385 22.1493 67.2881 22.1493V22.0974V17.5779C67.2881 17.4221 67.3385 17.3182 67.3889 17.2662C67.4393 17.2143 67.5401 17.1623 67.6409 17.1623H68.2962C68.397 17.1623 68.4978 17.1623 68.5986 17.2143C68.6994 17.2143 68.7498 17.2662 68.8002 17.3182C68.8506 17.3701 68.901 17.4221 68.9514 17.474C69.0018 17.526 69.0018 17.6299 69.0522 17.7338L70.1107 20.7467L71.2195 17.7338C71.2699 17.6299 71.2699 17.526 71.3203 17.474C71.3708 17.4221 71.4212 17.3182 71.4716 17.2662C71.522 17.2143 71.5724 17.1623 71.6732 17.1623C71.7236 17.1623 71.8244 17.1104 71.9252 17.1104H72.5804C72.6308 17.1104 72.7316 17.1104 72.7316 17.1623C72.782 17.1623 72.8324 17.2143 72.8324 17.2662C72.8829 17.3182 72.8828 17.3182 72.9333 17.4221C72.9333 17.474 72.9333 17.526 72.9333 17.5779V22.0454H73.0341Z" fill="#00A7B8"/>
<path d="M80.292 19.5519C80.292 19.9675 80.2416 20.3312 80.1408 20.6948C80.04 21.0065 79.8888 21.3182 79.6872 21.526C79.4856 21.7857 79.2335 21.9415 78.9311 22.0454C78.6287 22.1493 78.2759 22.2013 77.9231 22.2013C77.5198 22.2013 77.2174 22.1493 76.915 22.0454C76.6126 21.9415 76.4109 21.7857 76.2093 21.5779C76.0077 21.3701 75.8565 21.1104 75.7557 20.7467C75.6549 20.4351 75.6045 20.0195 75.6045 19.6039C75.6045 19.1883 75.6549 18.8247 75.7557 18.513C75.8565 18.2013 76.0077 17.8896 76.2093 17.6818C76.4109 17.474 76.663 17.2662 76.9654 17.1623C77.2678 17.0584 77.6206 16.9545 77.9734 16.9545C78.3263 16.9545 78.6791 17.0065 78.9815 17.1104C79.2839 17.2143 79.4856 17.3701 79.6872 17.5779C79.8888 17.7857 80.04 18.0454 80.1408 18.4091C80.2416 18.7208 80.292 19.1363 80.292 19.5519ZM79.2335 19.6039C79.2335 19.3441 79.2335 19.0844 79.1831 18.8766C79.1327 18.6688 79.0823 18.461 78.9815 18.3052C78.8807 18.1493 78.7295 18.0454 78.5783 17.9415C78.4271 17.8376 78.2255 17.8376 77.9734 17.8376C77.7214 17.8376 77.5198 17.8896 77.3686 17.9935C77.2174 18.0974 77.0662 18.2013 76.9654 18.3571C76.8646 18.513 76.8142 18.7208 76.7638 18.9286C76.7134 19.1363 76.7134 19.3441 76.7134 19.6039C76.7134 19.8636 76.7134 20.1234 76.7638 20.3312C76.8142 20.5389 76.8646 20.7467 76.9654 20.9026C77.0662 21.0584 77.167 21.1623 77.3686 21.2662C77.5198 21.3701 77.7214 21.3701 77.9734 21.3701C78.2255 21.3701 78.4271 21.3182 78.5783 21.2143C78.7295 21.1104 78.8807 21.0065 78.9815 20.8506C79.0823 20.6948 79.1327 20.487 79.1831 20.2792C79.2335 20.1234 79.2335 19.8636 79.2335 19.6039Z" fill="#00A7B8"/>
<path d="M84.9797 22.0454C84.9797 22.0973 84.9797 22.0973 84.9797 22.0973C84.9797 22.0973 84.9293 22.1493 84.8789 22.1493C84.8285 22.1493 84.7781 22.1493 84.7277 22.2012C84.6773 22.2012 84.5765 22.2012 84.4757 22.2012C84.3749 22.2012 84.3244 22.2012 84.2236 22.2012C84.1732 22.2012 84.1228 22.2012 84.0724 22.1493C84.022 22.1493 84.022 22.0973 83.9716 22.0973C83.9716 22.0454 83.9212 22.0454 83.9212 22.0454V17.9415H82.1571V22.0454C82.1571 22.0973 82.1571 22.0973 82.1067 22.0973C82.1067 22.0973 82.0563 22.1493 82.0059 22.1493C81.9555 22.1493 81.9051 22.1493 81.8547 22.2012C81.8043 22.2012 81.7035 22.2012 81.6027 22.2012C81.5019 22.2012 81.4515 22.2012 81.3506 22.2012C81.3002 22.2012 81.2498 22.2012 81.1994 22.1493C81.149 22.1493 81.149 22.0973 81.0986 22.0973C81.0986 22.0454 81.0986 22.0454 81.0986 22.0454V17.422C81.0986 17.3181 81.0986 17.2142 81.1994 17.1622C81.2498 17.1103 81.3507 17.0583 81.4011 17.0583H84.6773C84.7781 17.0583 84.8285 17.1103 84.8789 17.1622C84.9293 17.2142 84.9293 17.3181 84.9293 17.422V22.0454H84.9797Z" fill="#00A7B8"/>
<path d="M90.5244 19.5519C90.5244 19.9675 90.474 20.3312 90.3732 20.6948C90.2724 21.0065 90.1212 21.3182 89.9196 21.526C89.718 21.7857 89.4659 21.9415 89.1635 22.0454C88.8611 22.1493 88.5083 22.2013 88.1555 22.2013C87.7522 22.2013 87.4498 22.1493 87.1474 22.0454C86.845 21.9415 86.593 21.7857 86.4418 21.5779C86.2401 21.3701 86.0889 21.1104 85.9881 20.7467C85.8873 20.4351 85.8369 20.0195 85.8369 19.6039C85.8369 19.1883 85.8873 18.8247 85.9881 18.513C86.0889 18.2013 86.2401 17.8896 86.4418 17.6818C86.6434 17.474 86.8954 17.2662 87.1978 17.1623C87.5002 17.0584 87.853 16.9545 88.2059 16.9545C88.5587 16.9545 88.9115 17.0065 89.2139 17.1104C89.5163 17.2143 89.718 17.3701 89.9196 17.5779C90.1212 17.7857 90.2724 18.0454 90.3732 18.4091C90.474 18.7208 90.5244 19.1363 90.5244 19.5519ZM89.4659 19.6039C89.4659 19.3441 89.4659 19.0844 89.4155 18.8766C89.3651 18.6688 89.3147 18.461 89.2139 18.3052C89.1131 18.1493 89.0123 18.0454 88.8107 17.9415C88.6595 17.8376 88.4579 17.8376 88.2059 17.8376C87.9538 17.8376 87.7522 17.8896 87.601 17.9935C87.4498 18.0974 87.2986 18.2013 87.1978 18.3571C87.097 18.513 87.0466 18.7208 86.9962 18.9286C86.9458 19.1363 86.9458 19.3441 86.9458 19.6039C86.9458 19.8636 86.9458 20.1234 86.9962 20.3312C87.0466 20.5389 87.097 20.7467 87.1978 20.9026C87.2986 21.0584 87.3994 21.1623 87.601 21.2662C87.7522 21.3701 87.9538 21.3701 88.2059 21.3701C88.4579 21.3701 88.6595 21.3182 88.8107 21.2143C88.9619 21.1104 89.1131 21.0065 89.2139 20.8506C89.3147 20.6948 89.3651 20.487 89.4155 20.2792C89.4155 20.1234 89.4659 19.8636 89.4659 19.6039Z" fill="#00A7B8"/>
<path d="M94.7081 18.6169C94.7081 18.9286 94.6577 19.1364 94.6073 19.3961C94.5065 19.6039 94.4056 19.8117 94.204 19.9675C94.0528 20.1234 93.8512 20.2273 93.5992 20.3312C93.3472 20.3831 93.0952 20.4351 92.7423 20.4351H92.3391V22.0454C92.3391 22.0974 92.3391 22.0974 92.3391 22.0974C92.3391 22.0974 92.2887 22.1493 92.2383 22.1493C92.1879 22.1493 92.1375 22.2013 92.0871 22.2013C92.0367 22.2013 91.9359 22.2013 91.8351 22.2013C91.7343 22.2013 91.6335 22.2013 91.5831 22.2013C91.5327 22.2013 91.4823 22.2013 91.4319 22.1493C91.3815 22.1493 91.3815 22.0974 91.3311 22.0974V22.0454V17.474C91.3311 17.3701 91.3815 17.2662 91.4319 17.2143C91.4823 17.1623 91.5831 17.1104 91.6839 17.1104H92.8432C92.944 17.1104 93.0448 17.1104 93.196 17.1104C93.2968 17.1104 93.448 17.1623 93.5488 17.1623C93.7 17.2143 93.8512 17.2662 94.0024 17.3182C94.1536 17.4221 94.3048 17.474 94.4057 17.6299C94.5065 17.7338 94.6073 17.8896 94.6577 18.0454C94.7081 18.2532 94.7081 18.4091 94.7081 18.6169ZM93.7 18.7208C93.7 18.5649 93.6496 18.4091 93.5992 18.3052C93.5488 18.2013 93.448 18.0974 93.3976 18.0454C93.2968 17.9935 93.196 17.9416 93.0952 17.9416C92.9944 17.9416 92.8936 17.9416 92.7928 17.9416H92.3895V19.6558H92.8432C92.9944 19.6558 93.1456 19.6558 93.2464 19.6039C93.3472 19.5519 93.448 19.5 93.4984 19.3961C93.5488 19.2922 93.5992 19.2403 93.6496 19.0844C93.6496 18.9286 93.7 18.8247 93.7 18.7208Z" fill="#00A7B8"/>
<path d="M97.8327 20.7468C97.7319 21.0585 97.6311 21.2663 97.4799 21.4741C97.3791 21.6819 97.2783 21.8377 97.1271 21.9416C97.0263 22.0455 96.8751 22.1494 96.7238 22.2013C96.5726 22.2533 96.4214 22.2533 96.2198 22.2533C96.1694 22.2533 96.0686 22.2533 96.0182 22.2533C95.9678 22.2533 95.867 22.2533 95.8166 22.2013C95.7662 22.2013 95.7158 22.1494 95.6654 22.1494C95.615 22.1494 95.5646 22.0974 95.5646 22.0974L95.5142 22.0455C95.5142 22.0455 95.5142 21.9935 95.4638 21.9416C95.4638 21.8896 95.4638 21.8377 95.4638 21.7858C95.4638 21.7338 95.4638 21.6299 95.4638 21.578C95.4638 21.4221 95.4638 21.3182 95.5142 21.2663C95.5142 21.2143 95.5646 21.1624 95.615 21.1624C95.615 21.1624 95.6654 21.1624 95.7158 21.1624C95.7662 21.1624 95.7662 21.2143 95.8166 21.2143C95.867 21.2143 95.9174 21.2663 95.9678 21.2663C96.0182 21.2663 96.0686 21.3182 96.1694 21.3182C96.2198 21.3182 96.2702 21.3182 96.3206 21.3182C96.371 21.3182 96.4214 21.2663 96.4718 21.2663C96.5222 21.2143 96.5726 21.1624 96.5726 21.1104C96.623 21.0585 96.6734 20.9546 96.7238 20.8507L95.1109 17.4221C95.0605 17.3182 95.0605 17.2663 95.0605 17.2143C95.0605 17.1624 95.0605 17.1104 95.1109 17.1104C95.1613 17.0585 95.2118 17.0585 95.2622 17.0585C95.3126 17.0585 95.4134 17.0585 95.5646 17.0585C95.6654 17.0585 95.7662 17.0585 95.867 17.0585C95.9174 17.0585 96.0182 17.0585 96.0182 17.1104C96.0686 17.1104 96.0686 17.1624 96.119 17.1624C96.119 17.2143 96.1694 17.2143 96.1694 17.2663L96.8751 18.8247C96.9759 18.9806 97.0263 19.1364 97.0767 19.2922C97.1271 19.4481 97.2279 19.6039 97.2783 19.8117C97.3287 19.6559 97.3791 19.4481 97.4295 19.2922C97.4799 19.1364 97.5303 18.9286 97.6311 18.7728L98.1855 17.2143C98.1855 17.1624 98.2359 17.1624 98.2359 17.1104C98.2359 17.1104 98.2863 17.0585 98.3367 17.0585C98.3871 17.0585 98.4375 17.0585 98.4879 17.0065C98.5384 17.0065 98.6392 17.0065 98.74 17.0065C98.8408 17.0065 98.9416 17.0065 99.0424 17.0065C99.0928 17.0065 99.1432 17.0065 99.1936 17.0585C99.244 17.0585 99.244 17.1104 99.244 17.1624C99.244 17.2143 99.244 17.2663 99.1936 17.3182L97.8327 20.7468Z" fill="#00A7B8"/>
<path d="M43.9008 1.74005C42.6407 1.74005 41.0782 2.10369 39.8685 3.35044C38.5077 4.70109 38.3564 6.36343 38.3564 7.35044C38.3564 8.33745 38.5581 9.99979 39.9189 11.4024C41.0782 12.5972 42.5399 12.9608 43.8504 12.9608C45.7153 12.9608 46.9754 12.2336 47.7818 11.3504C49.0923 9.99979 49.2939 8.28551 49.2939 7.35044C49.2939 6.36343 49.0923 4.70109 47.7818 3.35044C47.177 2.72706 45.9169 1.74005 43.9008 1.74005ZM43.8504 11.0388C42.4895 11.0388 41.179 9.84395 41.179 7.35044C41.179 4.80499 42.4895 3.66213 43.8504 3.66213C45.2113 3.66213 46.4714 4.85693 46.4714 7.35044C46.4714 9.84395 45.1609 11.0388 43.8504 11.0388ZM54.4351 1.94784H50.4028H49.4956C49.4956 2.62317 49.4956 3.1946 49.4956 3.29849C49.4956 3.50629 49.6468 3.66213 49.8484 3.66213C49.8484 3.66213 49.8988 3.66213 49.9492 3.66213H50.4532H50.6548V11.0907C50.554 11.0907 50.5036 11.0907 50.4532 11.0907C50.4532 11.0907 50.4028 11.0907 50.3524 11.0907C50.2012 11.0907 49.8988 11.0907 49.8484 11.0907C49.6468 11.0907 49.4956 11.2465 49.4956 11.4543C49.4956 11.5582 49.4956 12.1297 49.4956 12.805H50.3524H50.4532H54.3343C54.3343 12.1297 54.3343 11.6102 54.3343 11.5063C54.3343 11.2985 54.1831 11.1426 53.9814 11.1426C53.931 11.1426 53.6286 11.1426 53.2254 11.1426V8.90888C53.2254 8.90888 53.2254 8.90888 54.5359 8.90888C58.1145 8.90888 58.5177 6.93486 58.5177 5.37642C58.4673 3.40239 57.5601 1.94784 54.4351 1.94784ZM53.6286 7.14265H53.1246V3.66213H53.6286C54.5359 3.66213 55.7456 3.81797 55.7456 5.42836C55.7456 6.93486 54.5359 7.14265 53.6286 7.14265ZM59.173 1.94784H68.0439V3.03875V4.44135V5.11668C67.3887 5.11668 66.8343 5.11668 66.7335 5.11668C66.5318 5.11668 66.3806 4.96083 66.3806 4.75304C66.3806 4.70109 66.3806 4.07771 66.3806 3.61018H64.8181V11.0388C65.423 11.0388 65.8766 11.0388 65.927 11.0388C66.1286 11.0388 66.2798 11.1946 66.2798 11.4024C66.2798 11.5063 66.2798 12.0777 66.2798 12.753H61.7435H61.6427H60.7859C60.7859 12.0777 60.7859 11.5063 60.7859 11.4024C60.7859 11.1946 60.9371 11.0388 61.1387 11.0388C61.1891 11.0388 61.4915 11.0388 61.6427 11.0388C61.6931 11.0388 61.7435 11.0388 61.7435 11.0388C61.8443 11.0388 62.046 11.0388 62.2476 11.0388V3.61018H60.7355C60.7355 4.07771 60.7355 4.70109 60.7355 4.75304C60.7355 4.96083 60.5843 5.11668 60.3827 5.11668C60.2818 5.11668 59.7274 5.11668 59.0722 5.11668V4.59719V3.03875V1.94784H59.173ZM69.6064 1.94784H77.4693V5.01278C76.8141 5.01278 76.2597 5.01278 76.1589 5.01278C75.9573 5.01278 75.806 4.85694 75.806 4.64914C75.806 4.59719 75.806 4.07771 75.806 3.61018H72.3282V6.25953H74.9996V8.02577H72.3282V11.0388C73.5883 11.0388 74.9492 11.0388 75.806 11.0388V10.9868C75.806 10.5193 75.806 9.84395 75.806 9.792C75.806 9.58421 75.9573 9.42836 76.1589 9.42836C76.2597 9.42836 76.8141 9.42836 77.4693 9.42836V10.6232V11.5063V12.7011H76.7637H75.8564H68.6992C68.6992 12.0258 68.6992 11.4543 68.6992 11.3504C68.6992 11.1426 68.8504 10.9868 69.052 10.9868C69.052 10.9868 69.3544 10.9868 69.8081 10.9868V3.61018H69.6064C69.6064 3.61018 69.5056 3.61018 69.4552 3.61018C69.304 3.61018 69.1024 3.61018 69.052 3.61018C68.8504 3.61018 68.6992 3.45434 68.6992 3.24655C68.6992 3.14265 68.6992 2.57122 68.6992 1.8959H69.6064V1.94784ZM98.8403 11.0907C98.8403 11.0907 98.5883 11.0907 98.2859 11.0907L95.9169 3.66213C96.421 3.66213 96.7738 3.66213 96.8242 3.66213C97.0258 3.66213 97.177 3.50629 97.177 3.29849C97.177 3.1946 97.177 2.62317 97.177 1.94784H91.1286H91.0278H90.171C90.171 2.62317 90.171 3.1946 90.171 3.29849C90.171 3.50629 90.3222 3.66213 90.5238 3.66213C90.5742 3.66213 90.8766 3.66213 91.0278 3.66213C91.0782 3.66213 91.1286 3.66213 91.1286 3.66213C91.2294 3.66213 91.3806 3.66213 91.6327 3.66213L89.3141 11.0907C88.9109 11.0907 88.5077 11.0907 88.1044 11.0907L84.7274 6.93486L87.7516 3.66213C88.1548 3.66213 88.4572 3.66213 88.5077 3.66213C88.7093 3.66213 88.8605 3.50629 88.8605 3.29849C88.8605 3.1946 88.8605 2.62317 88.8605 1.94784H85.4835H85.3826H84.3746C84.3746 2.62317 84.3746 3.1946 84.3746 3.29849C84.3746 3.50629 84.5258 3.66213 84.7274 3.66213C84.7778 3.66213 85.0802 3.66213 85.2818 3.66213L82.0056 6.93486V3.66213C82.4593 3.66213 82.7617 3.66213 82.7617 3.66213C82.9633 3.66213 83.1145 3.50629 83.1145 3.29849C83.1145 3.1946 83.1145 2.62317 83.1145 1.94784H79.2335H79.1327H78.2758C78.2758 2.62317 78.2758 3.1946 78.2758 3.29849C78.2758 3.50629 78.427 3.66213 78.6286 3.66213C78.679 3.66213 78.9814 3.66213 79.1327 3.66213C79.1831 3.66213 79.2335 3.66213 79.2335 3.66213C79.2839 3.66213 79.3343 3.66213 79.4351 3.66213V11.0907C79.3343 11.0907 79.2839 11.0907 79.2335 11.0907C79.2335 11.0907 79.1831 11.0907 79.1327 11.0907C78.9814 11.0907 78.679 11.0907 78.6286 11.0907C78.427 11.0907 78.2758 11.2465 78.2758 11.4543C78.2758 11.5582 78.2758 12.1297 78.2758 12.805H79.1327H79.2335H83.1145C83.1145 12.1297 83.1145 11.5582 83.1145 11.4543C83.1145 11.2465 82.9633 11.0907 82.7617 11.0907C82.7113 11.0907 82.4089 11.0907 82.0056 11.0907V7.1946L85.0802 11.0907C85.0802 11.0907 85.0802 11.0907 85.0298 11.0907C85.0298 11.0907 84.9794 11.0907 84.929 11.0907C84.7778 11.0907 84.4754 11.0907 84.425 11.0907C84.2234 11.0907 84.0722 11.2465 84.0722 11.4543C84.0722 11.5582 84.0722 12.1297 84.0722 12.805H84.929H85.0298H92.6407C92.6407 12.1297 92.6407 11.5582 92.6407 11.4543C92.6407 11.2465 92.4895 11.0907 92.2879 11.0907C92.2879 11.0907 91.9351 11.0907 91.431 11.0907L92.0359 8.96083H95.0601L95.6649 11.0907C95.5641 11.0907 95.5137 11.0907 95.4129 11.0907C95.4129 11.0907 95.3625 11.0907 95.3121 11.0907C95.1609 11.0907 94.8585 11.0907 94.8081 11.0907C94.6064 11.0907 94.4552 11.2465 94.4552 11.4543C94.4552 11.5582 94.4552 12.1297 94.4552 12.805H95.3121H95.4129H99.1427C99.1427 12.1297 99.1427 11.5582 99.1427 11.4543C99.1931 11.2465 99.0419 11.0907 98.8403 11.0907ZM92.4391 7.55823L93.548 3.61018C93.548 3.61018 93.548 3.61018 93.5984 3.61018L94.7072 7.55823H92.4391Z" fill="#F58233"/>
<path d="M31.9052 10.8571V22.7013H15.625C17.1371 16.8311 15.9274 21.2987 17.1371 16.6753C21.4718 16.8311 26.9153 15.3766 31.9052 10.8571ZM0 4.20776V22.7013H5.79637C6.04839 20.4156 6.45161 17.2467 6.1996 13.8182C3.32661 11.0649 1.05847 7.22075 0 4.20776Z" fill="#00A7B8"/>
<path d="M0 4.20776V22.7013H5.79637C6.04839 20.4156 6.45161 17.2467 6.1996 13.8182C3.32661 11.0649 1.05847 7.22075 0 4.20776Z" fill="#00A7B8"/>
<path d="M17.0863 16.6753C15.8766 21.3507 17.0863 16.8312 15.5742 22.7013H31.8545V10.8571C26.9149 15.3766 21.4714 16.8312 17.0863 16.6753Z" fill="#00A7B8"/>
<path d="M31.9052 2.28571C31.9052 1.03896 30.8972 0 29.6875 0C28.6794 0 0 0 0 0C2.11694 5.76623 6.3004 10.3896 12.6512 12.2597C17.2379 13.6104 25.4536 13.974 31.9052 8.36364C31.9052 7.01299 31.9052 3.27273 31.9052 2.28571ZM13.7097 11.5844C11.9456 11.5844 10.5343 10.1299 10.5343 8.31169C10.5343 6.49351 11.9456 5.03896 13.7097 5.03896C15.4738 5.03896 16.8851 6.49351 16.8851 8.31169C16.8347 10.1299 15.4234 11.5844 13.7097 11.5844Z" fill="#F58233"/>
</svg>
